<?xml version="1.0" standalone="no"?><!DOCTYPE svg PUBLIC "-//W3C//DTD SVG 1.1//EN" "http://www.w3.org/Graphics/SVG/1.1/DTD/svg11.dtd"><svg t="1525315534460" class="icon" style="" viewBox="0 0 1024 1024" version="1.1" xmlns="http://www.w3.org/2000/svg" p-id="4065" xmlns:xlink="http://www.w3.org/1999/xlink" width="32" height="32"><defs><style type="text/css"></style></defs><path d="M648.192 635.904l84.992 0c13.312 0 21.504-8.192 21.504-21.504s-8.192-21.504-21.504-21.504l-84.992 0c-13.312 0-21.504 8.192-21.504 21.504C631.808 626.688 640 635.904 648.192 635.904zM648.192 468.992l84.992 0c13.312 0 21.504-8.192 21.504-21.504 0-13.312-8.192-21.504-21.504-21.504l-84.992 0c-13.312 0-21.504 8.192-21.504 21.504C631.808 460.8 640 468.992 648.192 468.992zM149.504 677.888 89.088 677.888 89.088 179.2l665.6 0 0 64.512c0 13.312 8.192 21.504 21.504 21.504 12.288 0 21.504-8.192 21.504-21.504l0-64.512c0-21.504-17.408-43.008-43.008-43.008l-665.6 0c-21.504 0-43.008 17.408-43.008 43.008l0 498.688c0 21.504 17.408 43.008 43.008 43.008L153.6 720.896c12.288 0 21.504-8.192 21.504-21.504C175.104 687.104 161.792 677.888 149.504 677.888zM648.192 555.008l166.912 0c13.312 0 21.504-8.192 21.504-21.504S827.392 512 815.104 512L648.192 512c-13.312 0-21.504 8.192-21.504 21.504C631.808 545.792 640 555.008 648.192 555.008zM358.4 635.904l166.912 0c13.312 0 21.504-8.192 21.504-21.504s-8.192-21.504-21.504-21.504L358.4 592.896c-13.312 0-21.504 8.192-21.504 21.504S346.112 635.904 358.4 635.904zM921.6 303.104 256 303.104c-21.504 0-43.008 17.408-43.008 43.008l0 498.688c0 21.504 17.408 43.008 43.008 43.008l665.6 0c21.504 0 43.008-17.408 43.008-43.008L964.608 346.112C964.608 324.608 943.104 303.104 921.6 303.104zM921.6 844.8 755.712 844.8l0-43.008 21.504 0c12.288 0 21.504-8.192 21.504-21.504 0-12.288-8.192-21.504-21.504-21.504l-84.992 0c-13.312 0-21.504 8.192-21.504 21.504 0 13.312 8.192 21.504 21.504 21.504l21.504 0 0 43.008L460.8 844.8l0-43.008 21.504 0c13.312 0 21.504-8.192 21.504-21.504 0-12.288-8.192-21.504-21.504-21.504l-84.992 0c-13.312 0-21.504 8.192-21.504 21.504 0 13.312 8.192 21.504 21.504 21.504l21.504 0 0 43.008L256 844.8 256 346.112l665.6 0L921.6 844.8zM358.4 468.992l166.912 0c13.312 0 21.504-8.192 21.504-21.504 0-13.312-8.192-21.504-21.504-21.504L358.4 425.984c-13.312 0-21.504 8.192-21.504 21.504C336.896 460.8 346.112 468.992 358.4 468.992zM358.4 555.008l84.992 0c13.312 0 21.504-8.192 21.504-21.504S456.704 512 443.392 512L358.4 512c-13.312 0-21.504 8.192-21.504 21.504S346.112 555.008 358.4 555.008z" p-id="4066"></path></svg>